<?xml version="1.0" encoding="UTF-8"?>
<svg width="800" height="600" viewBox="0 0 800 600" fill="none" xmlns="http://www.w3.org/2000/svg">
    <!-- Bureau -->
    <rect x="100" y="300" width="600" height="30" fill="#112240"/>
    <path d="M150 330 L100 450 L700 450 L650 330 Z" fill="#0a192f"/>
    
    <!-- Lampe de bureau -->
    <path d="M600 150 L620 280 L580 280 Z" fill="#112240"/>
    <circle cx="600" cy="140" r="20" fill="#64ffda" opacity="0.5">
        <animate attributeName="opacity" values="0.3;0.6;0.3" dur="3s" repeatCount="indefinite"/>
    </circle>
    
    <!-- Écran -->
    <rect x="300" y="180" width="240" height="160" rx="10" fill="#0a192f"/>
    <rect x="310" y="190" width="220" height="140" rx="5" fill="#112240"/>
    
    <!-- Support écran -->
    <path d="M400 340 L420 340 L410 280 L390 280 Z" fill="#112240"/>
    
    <!-- Clavier -->
    <rect x="350" y="360" width="140" height="40" rx="5" fill="#0a192f"/>
    
    <!-- Souris -->
    <path d="M520 370 Q520 380 520 390 Q520 400 530 400 Q540 400 540 390 Q540 380 540 370 Z" fill="#0a192f"/>
    
    <!-- Tapis de souris -->
    <rect x="510" y="360" width="60" height="40" rx="5" fill="#112240"/>
    
    <!-- Plante -->
    <path d="M150 200 C150 200 130 250 170 250 C170 250 150 200 150 200" fill="#64ffda" opacity="0.5"/>
    <path d="M160 220 C160 220 140 260 180 260 C180 260 160 220 160 220" fill="#64ffda" opacity="0.4"/>
    <rect x="145" y="250" width="30" height="40" rx="5" fill="#112240"/>
    
    <!-- Tasse café -->
    <path d="M200 280 L220 280 L215 310 L205 310 Z" fill="#0a192f"/>
    <path d="M215 290 Q230 290 230 300" stroke="#64ffda" stroke-width="2" fill="none"/>
    
    <!-- Carnet -->
    <rect x="600" y="320" width="60" height="40" transform="rotate(-10)" fill="#112240"/>
    <rect x="600" y="320" width="60" height="2" transform="rotate(-10)" fill="#64ffda" opacity="0.5"/>
    <rect x="600" y="330" width="60" height="2" transform="rotate(-10)" fill="#64ffda" opacity="0.3"/>
    
    <!-- Stylo -->
    <line x1="620" y1="310" x2="640" y2="330" stroke="#64ffda" stroke-width="2"/>
    
    <!-- Ombre portée -->
    <ellipse cx="400" cy="460" rx="250" ry="10" fill="#0a192f" opacity="0.3"/>
</svg> 